<?xml version="1.0" standalone="no"?>
<!DOCTYPE svg PUBLIC "-//W3C//DTD SVG 20010904//EN"
 "http://www.w3.org/TR/2001/REC-SVG-20010904/DTD/svg10.dtd">
<svg version="1.0" xmlns="http://www.w3.org/2000/svg"
 width="999.000000pt" height="168.000000pt" viewBox="0 0 999.000000 168.000000"
 preserveAspectRatio="xMidYMid meet">
<metadata>
Created by potrace 1.16, written by Peter Selinger 2001-2019
</metadata>
<g transform="translate(0.000000,168.000000) scale(0.100000,-0.100000)"
fill="#000000" stroke="none">
<path d="M1984 1405 c-61 -18 -98 -41 -137 -84 -49 -54 -66 -90 -81 -169 -30
-168 38 -326 170 -392 38 -18 64 -23 123 -24 85 0 118 13 169 65 33 34 34 33
46 -23 6 -25 11 -28 44 -28 l38 0 0 178 0 177 -110 -2 c-61 0 -120 -2 -131 -2
-17 -1 -20 -7 -18 -48 0 -27 2 -51 2 -54 1 -3 30 -6 66 -6 36 -1 69 -2 74 -2
14 -2 1 -43 -27 -80 -44 -60 -143 -82 -210 -47 -34 18 -79 68 -94 105 -18 44
-22 150 -8 194 28 89 84 136 166 141 59 3 117 -24 146 -68 22 -35 25 -36 85
-36 l61 0 -10 38 c-21 75 -80 135 -163 162 -52 17 -151 20 -201 5z"/>
<path d="M574 1078 l0 -328 223 0 223 0 0 55 0 55 -158 0 -157 0 0 266 c0 146
-2 268 -5 272 -3 4 -32 7 -66 7 l-60 0 0 -327z"/>
<path d="M1135 1150 c2 -286 6 -304 70 -358 51 -41 121 -62 202 -58 157 6 240
88 243 241 1 39 1 151 1 250 l-1 180 -65 0 -65 0 -1 -50 c0 -27 0 -133 0 -234
0 -206 -8 -243 -56 -262 -41 -17 -104 -18 -135 -2 -60 29 -63 43 -63 307 l0
241 -66 0 -65 0 1 -255z"/>
<path d="M2661 1401 c-9 -6 -43 -92 -106 -271 -20 -58 -39 -112 -42 -120 -3
-8 -25 -70 -48 -137 l-43 -123 67 0 68 0 18 58 c10 31 21 62 26 67 5 7 56 10
126 10 l118 0 24 -68 23 -67 65 0 c63 0 65 1 60 23 -2 12 -41 126 -85 252 -44
127 -90 259 -102 295 -12 36 -26 69 -31 75 -10 10 -123 15 -138 6z m129 -353
c0 -9 5 -20 10 -23 6 -3 10 -12 10 -20 0 -10 -20 -13 -85 -12 -47 1 -85 4 -85
7 0 8 39 130 50 155 5 11 14 38 21 59 l12 40 33 -95 c18 -51 33 -102 34 -111z"/>
<path d="M3122 1395 c-4 -5 -7 -153 -7 -328 l-1 -318 66 3 65 3 0 128 0 127
102 0 c79 0 105 -3 117 -16 18 -18 18 -15 21 -116 4 -130 3 -128 90 -128 77 0
89 7 60 36 -9 10 -15 36 -16 67 -3 143 -18 186 -74 207 -18 6 -17 9 12 23 85
45 107 175 43 263 -36 50 -71 57 -278 58 -122 1 -196 -2 -200 -9z m345 -109
c12 -4 25 -17 29 -29 20 -63 7 -110 -35 -126 -39 -14 -208 -13 -213 2 -4 10
-3 110 1 150 1 11 24 13 99 12 53 -1 107 -5 119 -9z"/>
<path d="M4274 1401 c-10 -11 -2 -111 14 -166 15 -50 22 -59 41 -59 19 0 27 9
42 47 20 51 30 131 19 162 -6 16 -17 20 -59 20 -29 0 -54 -1 -57 -4z"/>
<path d="M4994 1401 c-12 -12 -2 -123 16 -171 11 -30 20 -56 20 -57 0 -2 10
-1 22 1 17 2 27 16 41 57 19 54 27 153 13 166 -8 8 -104 11 -112 4z"/>
<path d="M4703 1383 c-7 -2 -13 -10 -13 -17 0 -23 -57 -67 -105 -81 -26 -8
-51 -13 -55 -10 -13 8 -26 -18 -28 -52 l-2 -33 78 0 79 0 -1 -220 -1 -220 63
0 62 0 0 318 0 317 -33 2 c-17 0 -38 -1 -44 -4z"/>
<path d="M5213 1204 c-8 -22 -9 -114 -1 -115 4 -1 19 -1 33 -1 14 0 41 0 60 1
l35 1 0 63 0 63 -61 0 c-40 1 -62 -3 -66 -12z"/>
<path d="M3736 1068 l1 -53 217 0 216 0 0 52 0 53 -218 0 -218 0 2 -52z"/>
<path d="M3751 898 c-16 -5 -19 -31 -12 -98 1 -4 290 -4 409 -1 20 1 22 6 22
51 0 41 -3 50 -17 51 -89 4 -388 3 -402 -3z"/>
<path d="M5209 868 c-1 -18 -1 -90 0 -105 1 -8 16 -13 42 -13 22 0 38 -4 35
-8 -3 -5 -7 -21 -10 -36 -5 -28 -31 -55 -52 -56 -14 0 -24 -34 -15 -48 10 -17
87 22 107 54 14 20 19 53 22 126 l4 98 -66 0 c-46 0 -66 -4 -67 -12z"/>
</g>
</svg>
