<?xml version="1.0" standalone="no"?>
<!DOCTYPE svg PUBLIC "-//W3C//DTD SVG 20010904//EN"
 "http://www.w3.org/TR/2001/REC-SVG-20010904/DTD/svg10.dtd">
<svg version="1.0" xmlns="http://www.w3.org/2000/svg"
 width="999.000000pt" height="168.000000pt" viewBox="0 0 999.000000 168.000000"
 preserveAspectRatio="xMidYMid meet">
<metadata>
Created by potrace 1.16, written by Peter Selinger 2001-2019
</metadata>
<g transform="translate(0.000000,168.000000) scale(0.100000,-0.100000)"
fill="#000000" stroke="none">
<path d="M2115 1245 c-154 -36 -235 -143 -240 -320 -7 -246 120 -377 357 -370
118 3 207 31 278 86 l36 27 -1 124 -1 123 -146 3 -146 3 -4 -28 c-2 -16 -1
-39 2 -53 5 -24 8 -25 70 -25 98 1 99 0 97 -53 -2 -44 -4 -47 -50 -70 -61 -30
-173 -38 -226 -16 -85 35 -124 109 -124 229 0 135 46 208 148 236 79 22 184
-13 219 -72 10 -16 20 -28 24 -25 4 2 33 11 64 20 57 16 57 16 45 44 -22 50
-78 101 -136 123 -66 25 -191 32 -266 14z"/>
<path d="M4810 1243 c-59 -20 -105 -65 -125 -121 -8 -25 -14 -47 -12 -48 1 -1
32 -5 69 -8 64 -6 66 -5 72 19 10 40 45 65 92 65 71 0 104 -48 83 -122 -11
-39 -34 -65 -119 -138 -145 -123 -202 -201 -204 -278 l-1 -47 240 -3 240 -2 0
55 0 55 -157 0 c-90 0 -158 4 -158 9 0 18 54 73 130 135 86 70 129 115 154
164 19 38 23 122 7 164 -13 35 -58 80 -96 97 -46 20 -162 22 -215 4z"/>
<path d="M5305 1246 c-60 -26 -94 -91 -90 -172 7 -120 88 -182 203 -154 81 19
121 81 116 179 -4 66 -27 112 -67 136 -37 22 -122 28 -162 11z m122 -86 c16
-32 16 -118 0 -150 -18 -36 -78 -41 -101 -8 -25 35 -22 142 5 169 28 28 79 23
96 -11z"/>
<path d="M570 905 l0 -345 255 0 255 0 0 55 0 55 -185 0 -185 0 0 290 0 290
-70 0 -70 0 0 -345z"/>
<path d="M1172 993 c3 -256 3 -258 29 -308 47 -90 146 -136 278 -131 131 5
216 51 261 141 22 45 25 66 30 201 3 83 4 197 2 252 l-3 102 -69 0 -70 0 -1
-222 c0 -123 -2 -234 -5 -247 -7 -41 -43 -88 -77 -102 -47 -20 -136 -17 -170
5 -57 38 -61 59 -64 311 -1 127 -2 236 -2 243 -1 8 -22 12 -72 12 l-71 0 4
-257z"/>
<path d="M2887 1242 c-3 -4 -23 -57 -45 -117 -22 -61 -77 -210 -121 -331 -45
-122 -81 -224 -81 -228 0 -3 31 -6 69 -6 l69 0 27 83 c15 45 31 87 35 92 5 6
62 10 136 9 l127 0 31 -92 31 -92 68 0 c61 0 69 2 64 18 -3 9 -21 62 -42 117
-20 55 -40 111 -45 125 -5 14 -27 75 -48 135 -22 61 -55 152 -74 202 l-33 93
-82 0 c-45 0 -84 -3 -86 -8z m183 -389 c0 -2 -45 -3 -99 -3 l-99 0 44 133 c24
72 47 139 50 147 4 11 102 -251 104 -277z"/>
<path d="M3399 1238 c0 -15 0 -647 0 -665 1 -9 22 -13 71 -13 l70 0 0 130 0
130 85 0 86 0 45 -72 c25 -40 61 -99 80 -130 l36 -58 80 0 c63 0 78 3 71 13
-6 6 -32 46 -58 87 -27 41 -64 98 -82 127 -34 52 -36 73 -7 73 25 0 92 70 106
109 15 46 12 134 -6 169 -20 38 -54 68 -101 89 -54 23 -475 34 -476 11z m396
-112 c81 -34 77 -156 -7 -185 -17 -6 -80 -11 -139 -11 l-109 0 0 105 0 105
110 0 c73 0 122 -5 145 -14z"/>
<path d="M4093 1026 l-1 -54 249 -1 249 0 0 55 0 54 -248 0 -248 0 -1 -54z"/>
<path d="M4096 790 c-2 -8 -3 -31 -2 -50 l1 -35 248 -3 247 -2 0 53 0 53 -245
0 c-212 0 -246 -2 -249 -16z"/>
</g>
</svg>
