<?xml version="1.0" standalone="no"?>
<!DOCTYPE svg PUBLIC "-//W3C//DTD SVG 20010904//EN"
 "http://www.w3.org/TR/2001/REC-SVG-20010904/DTD/svg10.dtd">
<svg version="1.0" xmlns="http://www.w3.org/2000/svg"
 width="999.000000pt" height="168.000000pt" viewBox="0 0 999.000000 168.000000"
 preserveAspectRatio="xMidYMid meet">
<metadata>
Created by potrace 1.16, written by Peter Selinger 2001-2019
</metadata>
<g transform="translate(0.000000,168.000000) scale(0.100000,-0.100000)"
fill="#000000" stroke="none">
<path d="M2115 1245 c-154 -36 -235 -143 -240 -320 -7 -246 120 -377 357 -370
118 3 207 31 278 86 l36 27 -1 124 -1 123 -144 3 c-83 1 -146 -1 -149 -7 -4
-5 -5 -29 -3 -53 l4 -44 66 1 c99 2 101 1 99 -53 -2 -44 -5 -47 -48 -69 -54
-26 -155 -37 -210 -23 -92 25 -143 108 -142 235 0 135 46 208 148 236 79 22
184 -13 219 -72 10 -16 20 -28 24 -25 4 2 33 11 64 20 57 16 57 16 45 44 -22
50 -78 101 -136 123 -66 25 -191 32 -266 14z"/>
<path d="M4828 1250 c-16 -5 -28 -6 -28 -4 0 7 -72 -48 -93 -70 -17 -19 -44
-93 -36 -100 2 -3 33 -6 68 -8 58 -3 64 -1 67 17 5 33 51 65 94 65 70 0 108
-56 86 -125 -9 -31 -58 -55 -110 -55 l-46 0 0 -55 0 -55 44 0 c89 0 136 -36
136 -104 0 -24 -9 -43 -30 -66 -28 -30 -34 -32 -80 -28 -55 6 -82 24 -100 68
-11 28 -13 28 -73 23 -34 -3 -65 -10 -68 -15 -11 -17 22 -86 58 -121 18 -19
52 -40 76 -47 58 -19 173 -20 224 -3 114 39 165 174 105 276 -17 28 -84 67
-116 67 -9 0 -14 5 -11 10 3 6 15 10 26 10 11 0 39 19 62 43 38 37 43 49 46
91 4 83 -32 141 -108 174 -40 17 -151 24 -193 12z"/>
<path d="M5305 1246 c-60 -26 -94 -91 -90 -172 7 -120 88 -182 203 -154 81 19
121 81 116 179 -4 66 -27 112 -67 136 -37 22 -122 28 -162 11z m122 -86 c16
-32 16 -118 0 -150 -18 -36 -78 -41 -101 -8 -25 35 -22 142 5 169 28 28 79 23
96 -11z"/>
<path d="M570 905 l0 -345 255 0 255 0 0 55 0 55 -185 0 -185 0 0 290 0 290
-70 0 -70 0 0 -345z"/>
<path d="M1172 993 c3 -256 3 -258 29 -308 47 -90 146 -136 278 -131 131 5
216 51 261 141 22 45 25 66 30 201 3 83 4 197 2 252 l-3 102 -69 0 -70 0 -1
-222 c0 -123 -2 -234 -5 -247 -7 -41 -43 -88 -77 -102 -47 -20 -136 -17 -170
5 -57 38 -61 59 -64 311 -1 127 -2 236 -2 243 -1 8 -22 12 -72 12 l-71 0 4
-257z"/>
<path d="M2887 1242 c-3 -4 -23 -57 -45 -117 -22 -61 -77 -210 -121 -331 -45
-122 -81 -224 -81 -228 0 -3 31 -6 69 -6 l69 0 27 83 c15 45 31 87 35 92 5 6
62 10 136 9 l127 0 31 -92 31 -92 68 0 c61 0 69 2 64 18 -3 9 -21 62 -42 117
-20 55 -40 111 -45 125 -5 14 -27 75 -48 135 -22 61 -55 152 -74 202 l-33 93
-82 0 c-45 0 -84 -3 -86 -8z m183 -389 c0 -2 -45 -3 -99 -3 l-99 0 44 133 c24
72 47 139 50 147 4 11 102 -251 104 -277z"/>
<path d="M3399 1238 c0 -15 0 -647 0 -665 1 -9 22 -13 71 -13 l70 0 0 130 0
130 85 0 86 0 45 -72 c25 -40 61 -99 80 -130 l36 -58 80 0 c63 0 78 3 71 13
-6 6 -32 46 -58 87 -27 41 -64 98 -82 127 -34 52 -36 73 -7 73 25 0 92 70 106
109 15 46 12 134 -6 169 -20 38 -54 68 -101 89 -54 23 -475 34 -476 11z m396
-112 c81 -34 77 -156 -7 -185 -17 -6 -80 -11 -139 -11 l-109 0 0 105 0 105
110 0 c73 0 122 -5 145 -14z"/>
<path d="M4093 1026 l-1 -54 249 -1 249 0 0 55 0 54 -248 0 -248 0 -1 -54z"/>
<path d="M4096 790 c-2 -8 -3 -31 -2 -50 l1 -35 248 -3 247 -2 0 53 0 53 -245
0 c-212 0 -246 -2 -249 -16z"/>
</g>
</svg>
