<?xml version="1.0" standalone="no"?>
<!DOCTYPE svg PUBLIC "-//W3C//DTD SVG 20010904//EN"
 "http://www.w3.org/TR/2001/REC-SVG-20010904/DTD/svg10.dtd">
<svg version="1.0" xmlns="http://www.w3.org/2000/svg"
 width="540.000000pt" height="550.000000pt" viewBox="0 0 540.000000 550.000000"
 preserveAspectRatio="xMidYMid meet">
<metadata>
Created by potrace 1.16, written by Peter Selinger 2001-2019
</metadata>
<g transform="translate(0.000000,550.000000) scale(0.100000,-0.100000)"
fill="#000000" stroke="none">
<path d="M2478 5285 c-2 -1 -37 -5 -78 -9 -41 -3 -88 -9 -105 -12 -16 -4 -38
-6 -47 -6 -10 0 -18 -4 -18 -9 0 -6 12 -8 28 -5 22 5 146 8 237 6 11 0 48 0
82 -1 33 0 72 -2 85 -4 12 -2 50 -6 83 -10 32 -4 68 -9 80 -12 11 -2 34 -6 50
-9 17 -2 53 -9 80 -16 28 -7 53 -13 58 -14 4 -1 8 -2 10 -4 1 -1 15 -4 31 -6
16 -3 37 -9 47 -15 10 -5 27 -9 39 -9 12 0 19 -4 16 -9 -3 -4 6 -7 19 -5 14 1
27 -1 29 -5 3 -4 32 -16 65 -27 34 -10 61 -22 61 -26 0 -5 11 -8 25 -8 14 0
25 -4 25 -10 0 -5 6 -10 14 -10 17 0 98 -41 108 -55 4 -5 8 -7 8 -3 0 9 109
-48 133 -69 9 -9 17 -13 17 -9 0 3 24 -10 53 -31 28 -20 66 -46 82 -57 17 -12
33 -25 37 -31 4 -5 8 -7 8 -3 0 3 14 -7 31 -23 18 -16 34 -28 36 -25 2 2 26
-18 54 -46 27 -27 49 -47 49 -44 0 3 13 -7 28 -22 15 -15 26 -30 24 -34 -3 -8
14 -12 33 -8 6 1 7 -1 3 -5 -8 -8 -1 -17 55 -75 52 -53 157 -183 153 -187 -2
-3 9 -18 25 -35 15 -17 26 -35 23 -40 -3 -4 0 -8 6 -8 6 0 14 -8 17 -17 4 -10
22 -42 40 -70 19 -29 30 -53 26 -53 -4 0 -3 -4 3 -8 15 -10 73 -128 114 -232
18 -47 36 -94 41 -105 7 -18 19 -55 25 -80 23 -85 36 -133 41 -145 3 -8 7 -26
8 -40 1 -14 4 -32 8 -40 3 -8 6 -22 6 -30 0 -8 4 -35 10 -60 26 -123 36 -458
18 -620 -18 -161 -65 -365 -112 -491 -8 -20 -11 -39 -8 -43 4 -3 1 -6 -5 -6
-7 0 -12 -7 -12 -15 0 -8 -13 -42 -29 -75 -16 -33 -27 -60 -24 -60 2 0 -3 -7
-11 -16 -9 -8 -14 -20 -11 -25 4 -5 2 -9 -4 -9 -6 0 -13 -11 -17 -25 -3 -14
-11 -22 -17 -18 -5 3 -7 1 -4 -4 8 -13 -21 -73 -34 -73 -6 0 -7 -4 -4 -10 3
-5 2 -10 -3 -10 -5 0 -12 -9 -15 -21 -3 -12 -10 -18 -16 -14 -6 3 -9 0 -6 -7
3 -8 -4 -23 -15 -35 -11 -12 -20 -25 -20 -28 0 -4 -6 -13 -12 -20 -26 -29 -34
-40 -41 -57 -3 -10 -11 -18 -17 -18 -5 0 -10 -4 -10 -10 0 -12 -17 -32 -87
-108 -29 -30 -53 -59 -53 -64 0 -4 -7 -8 -15 -8 -8 0 -15 -5 -15 -10 0 -6 -18
-27 -41 -48 -23 -20 -56 -51 -74 -69 -18 -18 -35 -29 -39 -26 -3 3 -6 2 -6 -4
0 -13 -141 -123 -157 -123 -6 0 -13 -7 -17 -15 -3 -8 -12 -15 -21 -15 -8 0
-15 -4 -15 -10 0 -5 -11 -12 -25 -16 -14 -3 -25 -9 -25 -13 0 -9 -116 -75
-126 -72 -4 2 -10 -3 -15 -10 -4 -7 -15 -14 -25 -15 -9 -2 -20 -7 -23 -12 -7
-12 -81 -43 -81 -35 0 4 -6 -2 -14 -13 -8 -10 -18 -16 -22 -11 -4 4 -17 1 -28
-6 -12 -8 -50 -24 -86 -36 -36 -12 -72 -25 -80 -28 -18 -7 -13 -6 -135 -37
-55 -14 -117 -28 -137 -30 -21 -2 -41 -7 -46 -10 -37 -23 -509 -26 -524 -4 -6
10 -8 10 -8 0 0 -8 -8 -10 -22 -7 -13 3 -39 8 -58 10 -19 3 -44 7 -55 9 -11 2
-38 7 -60 11 -39 6 -81 16 -210 49 -90 22 -206 67 -199 77 3 5 -1 6 -9 3 -13
-5 -80 20 -132 49 -49 27 -101 51 -107 49 -3 -1 -12 5 -18 13 -7 8 -16 15 -20
15 -11 0 -150 86 -177 110 -13 11 -23 18 -23 15 0 -3 -9 3 -20 13 -12 9 -23
16 -25 15 -2 -1 -22 15 -44 35 -21 20 -50 45 -65 56 -14 10 -23 23 -19 29 3 5
1 7 -4 4 -9 -6 -49 31 -195 183 -21 22 -38 42 -38 45 0 3 -12 19 -27 36 -48
53 -113 144 -113 157 0 6 -3 12 -7 12 -5 0 -24 30 -43 68 -19 37 -38 69 -41
72 -14 13 -121 260 -112 260 3 0 1 6 -5 13 -12 14 -62 177 -77 250 -2 10 -6
26 -9 35 -3 9 -7 37 -10 62 -3 25 -8 54 -10 66 -5 26 -17 116 -22 169 -3 35
-4 252 -2 343 1 17 4 32 7 32 3 0 6 19 7 43 1 95 40 285 87 424 19 56 32 104
29 107 -3 4 -1 6 5 6 9 0 15 11 28 55 2 6 6 19 11 30 14 39 -5 9 -44 -67 -22
-43 -43 -74 -47 -70 -3 4 -6 3 -5 -3 2 -9 2 -13 -5 -32 -2 -5 -6 -18 -10 -30
-4 -13 -11 -23 -14 -23 -4 0 -8 -6 -8 -12 0 -7 -9 -33 -20 -58 -11 -25 -27
-63 -34 -85 -8 -22 -18 -43 -22 -46 -5 -3 -8 -9 -7 -13 3 -12 -12 -71 -22 -82
-5 -7 -8 -16 -7 -20 1 -5 0 -16 -4 -24 -6 -16 -31 -118 -33 -135 0 -5 -4 -21
-7 -35 -11 -43 -21 -106 -43 -280 -5 -46 -5 -342 1 -400 4 -46 31 -228 39
-265 18 -84 73 -279 91 -320 7 -16 16 -41 20 -55 27 -89 198 -409 255 -477 5
-7 10 -16 10 -20 0 -4 14 -23 31 -40 16 -18 28 -33 25 -33 -5 0 8 -18 59 -76
11 -13 38 -45 60 -71 22 -26 62 -68 88 -93 27 -25 68 -63 91 -85 24 -22 61
-55 84 -73 23 -19 51 -42 64 -53 13 -10 28 -22 33 -27 6 -4 39 -28 75 -52 36
-24 67 -46 70 -49 3 -3 25 -17 50 -30 25 -14 51 -31 58 -38 7 -7 24 -16 38
-19 13 -3 24 -10 24 -15 0 -5 7 -9 15 -9 8 0 15 -5 15 -12 0 -6 3 -9 6 -5 4 3
32 -7 63 -23 50 -25 111 -53 166 -75 11 -5 23 -7 28 -7 4 1 7 -3 7 -8 0 -5 3
-9 8 -9 4 1 10 0 15 -1 4 -1 10 -3 15 -5 50 -13 62 -18 62 -24 0 -3 12 -7 26
-8 15 0 36 -6 48 -11 18 -9 142 -42 214 -57 12 -3 32 -7 45 -10 29 -6 219 -34
277 -40 55 -6 399 -7 408 -1 4 2 41 7 82 10 41 3 84 8 95 10 11 2 40 7 65 11
25 4 54 9 65 12 11 2 34 6 50 9 17 3 37 8 45 11 8 3 20 7 25 8 122 28 310 98
447 166 42 21 79 35 82 32 3 -3 8 2 12 11 3 9 10 14 14 11 4 -3 13 2 20 10 7
8 17 15 22 15 5 0 34 16 64 35 30 19 58 35 63 35 5 0 16 6 23 12 7 7 31 25 54
41 22 15 50 36 62 47 12 11 25 20 30 20 5 0 19 11 32 25 13 14 25 23 27 21 4
-4 36 24 139 122 36 34 70 62 75 62 5 0 8 3 6 8 -1 4 16 26 38 48 98 102 165
181 158 187 -2 3 5 10 16 17 12 6 19 15 16 21 -4 5 -1 9 5 9 5 0 18 13 29 30
10 16 21 27 25 22 4 -4 6 -2 4 4 -2 6 20 47 49 90 29 44 55 87 59 96 3 10 11
15 17 11 5 -3 7 -1 3 5 -3 6 7 34 24 62 16 28 30 55 30 60 0 6 4 10 10 10 5 0
9 3 8 8 -1 4 9 32 24 62 40 86 58 130 50 130 -4 0 -2 4 4 8 13 9 76 203 99
302 9 41 19 82 22 90 3 8 7 26 8 40 4 43 17 125 21 131 7 13 17 194 17 324 0
149 -7 255 -22 345 -5 30 -7 58 -5 62 2 4 1 9 -4 12 -5 3 -8 21 -7 41 0 19 -3
35 -7 35 -4 0 -7 3 -6 8 1 4 -3 30 -7 57 -10 57 -10 55 -17 75 -3 8 -16 53
-29 100 -12 47 -27 91 -32 98 -5 6 -7 12 -4 12 5 0 -8 39 -33 95 -4 11 -16 43
-26 70 -10 28 -24 59 -31 70 -7 11 -13 27 -13 37 0 10 -3 18 -8 18 -4 0 -13
15 -20 33 -7 17 -17 39 -22 47 -5 8 -24 43 -42 78 -17 34 -35 62 -40 62 -4 0
-8 5 -8 12 0 6 -11 26 -25 44 -14 18 -25 37 -25 42 0 5 -9 17 -20 27 -11 10
-17 21 -15 25 3 4 -2 11 -11 14 -8 3 -12 10 -9 16 3 5 2 10 -3 10 -5 0 -29 26
-52 58 -46 61 -71 89 -166 188 -34 35 -59 66 -56 69 3 3 -1 5 -8 5 -7 0 -26
14 -42 30 -15 17 -31 30 -34 30 -4 0 -14 8 -23 18 -9 10 -36 33 -61 52 -25 19
-46 38 -48 42 -2 5 -10 8 -18 8 -8 0 -14 4 -14 8 0 5 -30 28 -67 53 -38 24
-69 47 -71 51 -2 5 -10 8 -18 8 -8 0 -14 3 -14 8 0 4 -17 15 -37 24 -47 22
-96 50 -104 61 -3 5 -8 8 -10 6 -2 -1 -33 12 -69 29 -36 17 -72 32 -80 34 -8
2 -17 5 -20 8 -3 3 -30 16 -60 29 -30 13 -63 27 -72 32 -10 5 -25 9 -33 9 -8
0 -15 5 -15 11 0 5 -3 8 -8 5 -4 -2 -31 4 -60 14 -28 10 -52 16 -52 13 0 -3
-6 -1 -12 4 -7 5 -39 16 -70 23 -32 7 -58 16 -58 19 0 3 -15 6 -33 7 -17 1
-45 4 -62 8 -16 4 -43 9 -60 12 -16 3 -41 7 -55 10 -94 18 -270 32 -412 32
-91 0 -168 -1 -170 -3z"/>
<path d="M2183 5243 c9 -2 23 -2 30 0 6 3 -1 5 -18 5 -16 0 -22 -2 -12 -5z"/>
<path d="M1623 5165 c-20 -9 -35 -23 -39 -39 -9 -37 4 -96 21 -96 8 0 15 -4
15 -10 0 -5 15 -10 34 -10 46 0 87 35 88 75 1 27 -20 94 -22 70 0 -6 -3 -6 -8
1 -12 19 -56 23 -89 9z"/>
<path d="M1368 5043 c-10 -2 -18 -9 -18 -14 0 -5 -6 -9 -14 -9 -19 0 -48 -64
-44 -98 5 -56 57 -104 113 -104 34 0 48 6 79 34 27 24 30 34 30 82 0 49 -3 58
-29 80 -17 15 -34 26 -40 27 -5 0 -21 2 -35 4 -14 1 -33 1 -42 -2z"/>
<path d="M2816 4703 c19 -54 35 -100 35 -103 1 -3 5 -15 10 -27 4 -12 9 -34
11 -50 2 -15 5 -30 8 -33 11 -9 47 -119 42 -125 -3 -2 -10 -1 -16 4 -15 12
-109 46 -118 43 -5 -1 -8 3 -8 8 0 6 -8 10 -17 10 -9 0 -42 9 -72 20 -31 11
-67 21 -81 24 -14 2 -25 5 -25 6 0 2 -25 6 -70 14 -16 2 -30 5 -30 6 0 2 -27
5 -115 14 -78 8 -289 9 -347 1 -26 -3 -63 -8 -80 -11 -18 -2 -52 -8 -75 -13
-24 -6 -54 -12 -68 -15 -14 -3 -34 -7 -45 -10 -11 -3 -36 -9 -55 -14 -20 -5
-47 -15 -60 -22 -14 -7 -26 -13 -27 -12 -7 4 -150 -56 -180 -75 -12 -8 -23
-12 -23 -9 0 4 -6 2 -12 -4 -24 -20 -84 -56 -115 -70 -17 -8 -29 -18 -27 -22
3 -4 0 -8 -6 -8 -13 0 -63 -34 -105 -72 -16 -16 -36 -28 -43 -28 -7 0 -11 -4
-8 -8 3 -5 -4 -15 -16 -23 -35 -24 -184 -179 -172 -179 4 0 -5 -9 -20 -21 -14
-11 -26 -27 -26 -35 0 -8 -4 -14 -8 -14 -4 0 -19 -18 -32 -40 -14 -22 -28 -40
-32 -40 -5 0 -8 -6 -8 -14 0 -8 -6 -21 -12 -28 -19 -20 -35 -48 -55 -90 -10
-21 -21 -38 -26 -38 -4 0 -6 -4 -2 -10 3 -5 -3 -18 -14 -29 -11 -11 -17 -21
-15 -24 2 -2 -2 -17 -11 -33 -8 -16 -15 -35 -15 -41 0 -7 -5 -13 -10 -13 -6 0
-9 -3 -8 -7 4 -17 -14 -73 -22 -68 -5 3 -7 -3 -6 -12 2 -10 -3 -36 -11 -58
-14 -41 -32 -110 -39 -155 -8 -49 -13 -75 -14 -75 -4 0 -10 -127 -11 -225 -1
-115 6 -218 20 -268 4 -15 7 -40 7 -57 -1 -16 1 -32 4 -35 3 -3 13 -34 23 -70
10 -36 20 -74 23 -85 3 -11 6 -26 6 -32 1 -7 5 -13 10 -13 4 0 8 -8 8 -18 0
-10 3 -22 7 -26 5 -4 8 -11 8 -14 1 -18 51 -132 57 -132 5 0 8 -5 8 -11 0 -7
24 -53 52 -103 29 -50 52 -94 50 -98 -1 -5 2 -8 6 -8 5 0 24 -21 42 -47 19
-27 42 -55 52 -64 10 -9 18 -19 18 -23 0 -4 16 -22 35 -42 19 -19 35 -39 35
-44 0 -6 4 -10 8 -10 8 0 35 -24 149 -130 17 -17 34 -30 38 -30 3 0 12 -6 19
-13 8 -6 24 -19 36 -27 12 -8 34 -25 48 -38 15 -12 35 -25 45 -28 9 -3 17 -10
17 -15 0 -5 6 -9 14 -9 7 0 19 -7 26 -16 8 -8 22 -20 32 -25 19 -10 19 -10 1
18 -10 15 -22 33 -28 40 -23 28 -31 41 -55 88 -13 28 -29 53 -34 57 -6 4 -7
10 -4 14 4 3 1 13 -7 21 -8 8 -15 23 -15 34 0 10 -5 19 -12 19 -6 0 -8 3 -5 6
3 4 1 16 -5 28 -7 11 -13 27 -14 33 -1 7 -11 41 -22 75 -18 59 -32 113 -49
198 -4 19 -7 107 -7 195 -1 172 4 217 35 325 15 55 14 51 22 73 4 9 10 25 14
35 3 9 7 19 8 22 1 5 52 106 70 141 5 11 13 19 17 19 5 0 8 5 8 11 0 14 53 83
97 127 17 17 30 32 28 32 -3 0 3 9 12 20 10 11 20 20 23 20 4 0 29 21 56 46
50 46 192 144 208 143 5 0 12 4 15 9 5 9 124 72 136 72 3 1 24 9 47 19 65 27
198 66 298 86 8 1 40 6 70 10 30 4 64 9 75 12 28 5 290 5 350 -1 28 -3 75 -8
105 -11 30 -3 62 -8 70 -11 8 -4 31 -8 50 -11 19 -2 73 -13 120 -24 47 -11 92
-22 100 -24 17 -4 106 -33 130 -42 8 -3 21 -7 28 -9 8 -1 21 -6 30 -10 9 -4
24 -8 33 -10 16 -3 156 -57 194 -74 11 -5 27 -11 35 -12 8 -2 17 -5 20 -8 12
-12 51 -30 64 -30 8 0 16 -5 18 -10 2 -6 13 -12 26 -13 12 0 22 -4 22 -7 0 -6
41 -25 113 -51 158 -58 263 18 271 196 1 33 -1 72 -5 86 -3 14 -2 34 3 44 7
12 7 16 0 11 -6 -3 -17 24 -27 72 -9 42 -19 86 -23 97 -3 11 -6 22 -7 25 -3
16 -29 90 -41 117 -8 17 -14 34 -14 38 0 23 -146 296 -162 303 -5 2 -8 9 -8
16 0 7 -9 21 -20 31 -11 10 -20 24 -20 30 0 7 -7 15 -15 19 -8 3 -15 12 -15
20 0 8 -3 16 -7 18 -5 2 -25 24 -45 49 -49 61 -192 205 -247 249 -24 19 -52
42 -61 50 -31 28 -155 110 -168 110 -6 0 -12 5 -12 10 0 6 -7 10 -15 10 -8 0
-15 4 -15 8 0 5 -16 14 -35 22 -19 8 -35 17 -35 22 0 4 -3 7 -7 6 -8 -2 -91
33 -150 63 -18 9 -30 12 -27 5 3 -6 0 -4 -8 4 -7 8 -20 16 -28 17 -8 1 -46 11
-85 22 -38 12 -75 21 -82 21 -8 0 0 -35 23 -97z m754 -596 c55 -15 101 -50
145 -109 21 -27 33 -79 30 -125 -4 -58 -7 -69 -27 -108 -73 -138 -256 -164
-374 -53 -24 22 -43 43 -42 47 1 3 -4 19 -11 36 -29 70 -15 175 29 223 15 17
26 33 24 35 -2 2 8 10 24 18 15 8 30 18 34 24 4 5 8 7 8 4 0 -4 17 -1 37 6 34
12 86 13 123 2z"/>
<path d="M3423 3930 c-56 -34 -52 -110 7 -141 22 -12 38 -15 45 -9 7 5 15 7
18 3 4 -3 7 -1 7 5 0 7 6 12 14 12 35 0 36 92 2 123 -31 29 -55 30 -93 7z"/>
<path d="M2497 3304 c-1 -1 -38 -5 -82 -9 -44 -3 -99 -11 -123 -16 -24 -5 -48
-7 -53 -4 -5 4 -9 2 -9 -3 0 -5 -15 -13 -32 -16 -52 -10 -62 -13 -80 -20 -9
-4 -22 -9 -30 -10 -7 -1 -22 -7 -33 -13 -11 -6 -24 -12 -30 -13 -37 -9 -169
-70 -173 -82 -2 -4 -12 -8 -22 -8 -9 0 -23 -7 -30 -15 -7 -8 -19 -15 -27 -15
-7 0 -16 -7 -19 -15 -4 -8 -11 -15 -18 -15 -6 0 -26 -13 -44 -29 -17 -17 -32
-27 -32 -24 0 3 -9 -4 -20 -17 -11 -13 -20 -20 -20 -17 0 5 -38 -34 -148 -150
-13 -14 -35 -44 -50 -66 -15 -23 -32 -46 -39 -50 -7 -4 -13 -16 -13 -27 0 -10
-4 -20 -8 -22 -8 -3 -63 -110 -68 -133 -2 -5 -12 -34 -22 -62 -11 -29 -19 -53
-16 -53 2 0 -1 -12 -6 -26 -33 -86 -34 -345 -1 -488 13 -55 27 -106 31 -115 5
-9 24 -47 42 -86 17 -38 36 -71 40 -73 4 -2 8 -8 8 -13 0 -6 11 -22 24 -36 14
-15 23 -30 20 -35 -5 -7 10 -12 29 -9 5 1 6 -3 3 -8 -5 -7 56 -71 68 -71 2 0
-5 28 -16 63 -22 72 -63 241 -73 307 -18 112 -8 322 19 415 1 6 8 30 15 55 7
25 18 54 24 65 6 11 12 27 13 35 5 29 57 130 67 130 4 0 6 3 4 8 -7 11 69 123
78 114 5 -4 5 -2 2 4 -4 6 5 24 18 38 14 15 25 32 25 37 0 6 5 7 10 4 6 -3 10
-2 10 4 0 15 126 137 172 166 9 6 42 28 74 50 32 22 61 41 64 41 28 8 50 17
50 23 0 3 15 12 33 20 17 7 46 20 62 27 107 47 276 93 400 109 189 25 409 21
587 -11 24 -4 50 -8 58 -9 41 -4 219 -49 216 -54 -2 -3 10 -7 28 -8 18 -1 99
-24 180 -51 81 -27 144 -46 139 -42 -9 10 -105 57 -180 90 -29 13 -53 28 -53
33 0 6 -3 8 -6 4 -4 -3 -23 1 -43 9 -20 9 -40 17 -46 18 -5 1 -19 7 -30 13
-19 10 -193 68 -220 73 -3 1 -19 6 -37 11 -18 6 -46 12 -63 15 -16 3 -41 9
-55 14 -14 5 -47 11 -73 15 -27 4 -59 8 -70 11 -12 2 -37 5 -54 6 -18 1 -33 4
-33 7 0 5 -307 11 -313 5z"/>
</g>
</svg>
