<?xml version="1.0" standalone="no"?>
<!DOCTYPE svg PUBLIC "-//W3C//DTD SVG 20010904//EN"
 "http://www.w3.org/TR/2001/REC-SVG-20010904/DTD/svg10.dtd">
<svg version="1.0" xmlns="http://www.w3.org/2000/svg"
 width="880.000000pt" height="143.000000pt" viewBox="0 0 880.000000 143.000000"
 preserveAspectRatio="xMidYMid meet">
<metadata>
Created by potrace 1.16, written by Peter Selinger 2001-2019
</metadata>
<g transform="translate(0.000000,143.000000) scale(0.100000,-0.100000)"
fill="#000000" stroke="none">
<path d="M4007 1119 c-102 -16 -186 -81 -230 -178 -18 -38 -22 -65 -22 -156 0
-101 2 -115 29 -169 33 -68 82 -117 146 -149 36 -17 63 -22 130 -22 73 0 93 4
142 28 100 49 164 153 172 279 15 238 -148 402 -367 367z m140 -128 c90 -47
125 -221 68 -336 -42 -85 -122 -120 -209 -90 -86 30 -127 107 -122 232 4 122
51 192 143 211 40 9 84 3 120 -17z"/>
<path d="M7563 1119 c-157 -28 -242 -165 -231 -369 12 -197 115 -305 293 -305
68 0 89 5 138 29 65 31 110 84 128 149 15 57 10 62 -60 59 -45 -3 -61 -8 -61
-18 0 -26 -28 -70 -55 -88 -57 -38 -153 -27 -195 21 -42 47 -51 71 -57 152
-12 176 69 283 199 261 45 -8 75 -33 97 -80 16 -35 17 -35 79 -35 l62 0 -6 30
c-7 34 -39 102 -57 119 -67 65 -170 93 -274 75z"/>
<path d="M514 788 l0 -328 66 0 66 0 -1 249 c0 138 2 248 4 245 3 -2 30 -114
61 -247 l56 -242 66 -3 66 -3 7 33 c4 18 18 78 31 133 14 55 27 111 29 125 10
56 47 210 50 210 2 0 3 -102 3 -227 0 -126 1 -238 1 -250 1 -21 6 -23 66 -23
l65 0 -2 327 -3 327 -93 1 c-52 0 -97 -4 -101 -10 -6 -8 -32 -121 -97 -420 -3
-11 -8 -36 -13 -55 l-8 -35 -11 40 c-6 22 -13 51 -16 65 -2 14 -14 66 -25 115
-12 50 -31 133 -42 185 -12 52 -25 99 -30 105 -6 5 -51 10 -102 10 l-93 0 0
-327z"/>
<path d="M1460 1106 c-6 -6 -10 -15 -10 -20 0 -6 -27 -87 -61 -181 -33 -93
-83 -232 -109 -307 l-49 -138 68 0 67 0 18 58 c10 31 22 62 26 67 5 6 58 10
127 10 l118 0 24 -68 23 -67 64 0 c35 0 64 4 64 9 0 4 -38 118 -84 252 -46
134 -94 273 -106 309 -12 36 -26 69 -31 74 -11 13 -137 14 -149 2z m119 -275
c23 -68 41 -125 41 -126 0 -1 -38 -2 -85 -2 -47 0 -85 3 -85 6 0 12 82 252 85
249 2 -2 21 -59 44 -127z"/>
<path d="M1925 790 l0 -325 65 -3 66 -3 -1 131 -1 130 102 0 c130 0 138 -7
140 -118 1 -43 4 -92 8 -109 l8 -33 74 0 c41 0 74 3 74 8 0 4 -6 16 -14 27 -8
12 -16 61 -20 119 -5 84 -10 104 -29 124 -12 13 -30 27 -40 31 -15 6 -12 11
20 31 44 29 64 66 68 127 4 53 -11 103 -39 135 -39 45 -74 51 -285 52 l-197 1
1 -325z m352 206 c36 -12 50 -80 26 -128 -16 -33 -44 -39 -163 -35 l-85 2 -1
80 c0 44 1 83 2 86 4 8 194 4 221 -5z"/>
<path d="M2734 1085 c-11 -24 -114 -313 -205 -572 l-18 -53 68 0 68 0 12 43
c29 95 24 92 159 92 l120 0 21 -67 22 -68 66 0 c63 0 65 1 60 23 -4 17 -98
290 -130 377 -3 8 -22 65 -43 125 -20 61 -41 114 -46 120 -5 5 -38 10 -75 10
-63 1 -66 0 -79 -30z m121 -242 c20 -65 38 -122 39 -128 0 -5 -35 -10 -81 -12
-46 -1 -83 1 -83 5 0 11 81 252 85 252 1 0 20 -53 40 -117z"/>
<path d="M3170 1110 c-5 -3 -10 -27 -11 -55 l-3 -50 84 -1 c47 -1 92 -2 101
-3 15 -1 17 -27 17 -248 0 -137 1 -258 1 -270 1 -21 5 -23 66 -23 l65 0 0 273
0 273 86 -1 c53 -1 91 3 98 10 6 7 10 31 8 56 l-4 44 -250 0 c-137 0 -254 -2
-258 -5z"/>
<path d="M4491 1110 c-4 -3 -7 -150 -7 -327 l0 -323 62 0 c41 0 63 4 66 13 2
6 4 105 3 220 0 114 3 207 6 207 6 0 188 -309 240 -405 16 -29 19 -30 84 -30
l68 0 1 308 c1 170 -2 316 -5 325 -5 13 -19 17 -65 17 l-59 0 -2 -214 c-1
-117 -4 -215 -6 -218 -4 -3 -70 104 -114 184 -6 13 -42 74 -78 136 l-66 112
-61 0 c-33 0 -63 -2 -67 -5z"/>
<path d="M5334 1108 c-5 -8 -17 -41 -89 -243 -29 -82 -73 -207 -99 -277 l-45
-128 67 0 68 0 22 68 22 67 117 -1 c65 -1 121 -2 125 -3 3 0 16 -30 28 -66
l22 -65 64 0 c35 0 64 4 64 9 0 9 -136 408 -196 576 l-25 70 -70 0 c-39 0 -73
-3 -75 -7z m115 -276 c23 -68 41 -125 41 -126 0 -2 -38 -3 -85 -3 -89 0 -97 5
-75 45 5 9 23 61 41 115 17 54 33 96 34 95 2 -2 22 -58 44 -126z"/>
<path d="M5921 1112 c-73 -11 -93 -58 -92 -218 0 -101 -2 -117 -19 -134 -11
-11 -28 -20 -38 -20 -15 0 -18 -8 -17 -37 1 -33 4 -38 32 -45 39 -10 42 -23
42 -170 0 -133 11 -167 62 -193 17 -9 48 -15 72 -13 44 3 43 2 38 73 -1 10
-11 15 -30 15 -17 0 -31 6 -35 16 -3 9 -6 70 -6 137 -1 131 -5 143 -54 169
l-29 15 30 6 c43 8 53 41 53 168 0 125 9 152 47 147 24 -3 27 0 28 35 1 50
-15 59 -84 49z"/>
<path d="M6149 1115 c-1 0 -2 -147 -3 -327 l-1 -328 65 0 66 0 -1 117 0 118
111 1 c114 2 133 7 191 50 77 58 86 232 16 311 -47 53 -83 58 -444 58z m320
-125 c42 -22 55 -107 23 -147 -22 -30 -61 -40 -147 -39 l-70 1 -1 95 c0 52 1
98 2 101 5 10 171 1 193 -11z"/>
<path d="M6754 787 l1 -328 65 3 65 3 0 115 0 115 112 2 c131 2 177 20 220 83
34 52 43 165 19 222 -40 94 -85 111 -311 112 l-171 1 0 -328z m331 199 c53
-34 41 -153 -17 -172 -39 -12 -178 -12 -179 0 -3 25 -5 181 -2 187 6 14 173 1
198 -15z"/>
<path d="M8019 1110 c-1 -3 -2 -150 -3 -327 l-1 -323 65 0 65 0 0 325 c0 179
-2 325 -5 326 -19 4 -120 3 -121 -1z"/>
<path d="M8292 1101 c-4 -9 -7 -27 -7 -41 0 -19 6 -26 25 -28 44 -6 50 -26 50
-163 0 -126 0 -128 26 -148 15 -12 34 -21 43 -21 9 -1 2 -7 -16 -15 -17 -7
-36 -22 -42 -34 -6 -11 -11 -70 -11 -131 0 -123 -8 -150 -45 -150 -17 0 -25
-6 -26 -17 0 -10 -2 -30 -3 -46 -2 -26 1 -27 42 -27 103 0 133 44 133 198 1
147 4 159 43 173 25 9 33 17 31 33 -1 12 -3 28 -4 36 0 9 -11 17 -23 17 -38 3
-44 25 -45 162 -2 173 -22 209 -122 215 -31 2 -44 -1 -49 -13z"/>
</g>
</svg>
