<?xml version="1.0" standalone="no"?>
<!DOCTYPE svg PUBLIC "-//W3C//DTD SVG 20010904//EN"
 "http://www.w3.org/TR/2001/REC-SVG-20010904/DTD/svg10.dtd">
<svg version="1.0" xmlns="http://www.w3.org/2000/svg"
 width="880.000000pt" height="143.000000pt" viewBox="0 0 880.000000 143.000000"
 preserveAspectRatio="xMidYMid meet">
<metadata>
Created by potrace 1.16, written by Peter Selinger 2001-2019
</metadata>
<g transform="translate(0.000000,143.000000) scale(0.100000,-0.100000)"
fill="#000000" stroke="none">
<path d="M5277 1199 c-69 -19 -88 -64 -88 -211 0 -73 -5 -122 -14 -144 -8 -19
-15 -34 -17 -34 -2 0 -21 -6 -42 -14 -36 -12 -39 -16 -40 -54 -2 -38 0 -41 35
-51 65 -20 73 -37 76 -174 4 -145 6 -159 36 -189 35 -37 65 -45 170 -47 l97
-2 0 46 0 45 -55 0 c-106 0 -124 27 -123 181 0 112 -15 151 -67 176 l-34 16
31 16 c58 30 68 54 70 179 2 108 16 170 39 173 5 1 14 3 19 4 6 1 35 3 65 4
l55 1 0 45 0 46 -92 -2 c-51 -1 -106 -6 -121 -10z"/>
<path d="M8070 1166 l0 -46 55 0 c108 0 123 -23 125 -190 1 -115 9 -138 62
-170 l30 -18 -31 -16 c-49 -26 -61 -61 -64 -192 -2 -113 -3 -116 -30 -140 -23
-20 -39 -24 -88 -24 l-59 0 0 -46 0 -47 108 5 c171 7 191 30 193 225 1 130 18
170 77 185 17 5 32 12 33 16 0 4 2 23 3 43 1 35 0 37 -42 48 -59 15 -69 43
-71 193 -2 188 -22 211 -193 217 l-108 3 0 -46z"/>
<path d="M3410 1152 c-128 -40 -191 -148 -191 -327 0 -218 83 -333 246 -341
179 -8 274 108 276 335 2 165 -51 276 -151 319 -34 14 -150 24 -180 14z m111
-113 c14 -5 37 -29 50 -52 21 -37 23 -55 24 -157 0 -86 -4 -126 -18 -160 -19
-52 -60 -82 -104 -77 -80 10 -108 70 -108 237 0 103 3 119 24 157 32 57 77 74
132 52z"/>
<path d="M7023 1150 c-57 -12 -96 -33 -128 -72 -56 -66 -70 -124 -69 -273 2
-220 104 -331 293 -321 65 4 107 23 155 69 35 34 79 117 68 128 -4 4 -33 11
-64 16 l-58 10 -20 -41 c-54 -112 -185 -91 -221 36 -7 24 -12 84 -12 134 0 73
4 99 22 135 50 99 164 101 206 3 l13 -32 65 16 64 15 -15 39 c-19 48 -75 106
-121 125 -44 19 -122 24 -178 13z"/>
<path d="M230 819 l0 -330 52 3 53 3 -2 273 c-1 151 0 272 2 270 2 -2 6 -19 9
-39 3 -19 13 -62 21 -95 9 -32 23 -84 31 -114 34 -127 30 -121 87 -118 l51 3
32 120 c17 66 38 149 46 185 13 61 14 50 13 -212 l0 -278 52 0 53 0 0 330 0
330 -79 0 -80 0 -15 -53 c-25 -85 -64 -240 -69 -267 l-3 -25 -6 25 c-23 99
-39 166 -59 238 l-21 82 -84 0 -84 0 0 -331z"/>
<path d="M993 1133 c-4 -10 -53 -157 -108 -328 l-102 -310 60 -3 c33 -2 66 -1
72 2 7 2 21 39 31 80 15 64 21 76 38 77 90 5 184 4 197 -3 10 -4 24 -37 35
-79 10 -39 24 -73 30 -76 6 -2 38 -3 71 -1 l60 3 -107 325 -106 325 -82 3
c-71 2 -83 0 -89 -15z m141 -270 c14 -51 26 -94 26 -97 0 -4 -36 -6 -80 -6
-44 0 -80 2 -80 5 0 8 70 258 77 275 4 9 11 -5 18 -35 7 -27 24 -91 39 -142z"/>
<path d="M1450 821 l0 -331 70 0 70 0 0 125 0 125 43 0 c46 0 46 0 136 -163
50 -90 46 -87 127 -87 41 0 74 4 74 9 0 4 -8 19 -17 32 -24 32 -42 61 -50 79
-3 8 -26 46 -50 83 -23 37 -43 70 -43 72 0 2 12 11 28 19 97 50 131 159 82
260 -17 37 -32 50 -78 73 -54 26 -65 28 -224 31 l-168 4 0 -331z m326 186 c32
-37 32 -87 0 -124 -22 -25 -31 -28 -105 -31 l-81 -4 0 97 0 97 81 -4 c74 -3
83 -6 105 -31z"/>
<path d="M2197 1143 c-2 -4 -51 -150 -107 -323 -57 -173 -105 -319 -107 -323
-3 -4 28 -7 68 -5 l72 3 20 70 c10 39 23 74 28 79 5 5 56 10 114 10 l106 1 20
-70 c11 -38 22 -76 24 -82 3 -9 27 -13 74 -13 l69 0 -28 88 c-16 48 -64 195
-108 327 l-78 240 -81 3 c-45 1 -83 -1 -86 -5z m92 -95 c-3 -13 5 -44 47 -188
13 -47 24 -88 24 -92 0 -5 -36 -8 -80 -8 -44 0 -80 3 -80 6 0 3 14 54 31 113
17 58 33 114 35 124 5 30 15 57 20 57 3 0 4 -6 3 -12z"/>
<path d="M2610 1095 l0 -55 100 0 100 0 0 -275 0 -275 70 0 70 0 0 275 0 275
100 0 100 0 0 55 0 55 -270 0 -270 0 0 -55z"/>
<path d="M3849 1128 c0 -13 -1 -161 -2 -331 l-2 -307 64 0 63 0 -4 239 -4 240
28 -72 c15 -40 56 -146 91 -237 l62 -165 83 -3 82 -3 1 88 c1 96 1 308 0 471
l-1 102 -61 0 -61 0 4 -248 4 -248 -67 179 c-37 98 -80 209 -94 248 l-27 69
-79 0 c-75 0 -79 -1 -80 -22z"/>
<path d="M4597 1143 c-2 -4 -21 -60 -41 -123 -20 -63 -41 -124 -46 -135 -5
-11 -30 -87 -56 -170 -26 -82 -53 -167 -60 -188 l-13 -38 72 3 72 3 21 79 20
80 103 1 c57 0 109 -4 116 -10 8 -5 22 -41 33 -80 l19 -70 70 -3 71 -3 -28 88
c-16 48 -64 196 -107 328 l-79 240 -81 3 c-45 1 -83 -1 -86 -5z m90 -95 c0 -7
16 -73 37 -146 20 -73 36 -135 36 -137 0 -3 -36 -5 -80 -5 -44 0 -80 2 -80 5
0 5 64 242 76 283 2 6 5 12 7 12 2 0 4 -6 4 -12z"/>
<path d="M5650 1066 c0 -47 0 -178 0 -291 0 -113 0 -223 0 -245 l0 -40 70 0
70 0 0 115 0 115 68 0 c91 0 164 23 212 66 46 42 64 88 63 165 -1 86 -38 141
-118 175 -31 13 -78 19 -202 22 l-163 4 0 -86z m303 -50 c35 -24 48 -64 35
-112 -13 -52 -41 -68 -124 -72 l-74 -4 0 106 0 107 66 -2 c48 -2 74 -8 97 -23z"/>
<path d="M6249 1006 c0 -80 0 -175 0 -211 0 -36 0 -119 0 -185 l1 -120 70 0
70 0 0 114 0 113 94 6 c128 7 186 37 227 117 27 52 30 150 6 196 -44 85 -100
106 -304 112 l-163 5 -1 -147z m304 10 c36 -24 47 -56 36 -105 -13 -57 -37
-73 -123 -79 l-76 -5 0 107 0 107 66 -2 c48 -2 74 -8 97 -23z"/>
<path d="M7458 1112 c-6 -71 -5 -72 78 -72 l74 0 0 -220 0 -220 -75 0 c-53 0
-75 -4 -76 -12 0 -7 -1 -32 -2 -56 l-2 -42 223 0 222 0 1 25 c1 14 1 34 1 45
0 11 0 25 -1 30 -1 6 -33 10 -76 10 l-75 0 0 220 0 220 74 0 74 0 3 33 c2 17
3 42 1 55 l-3 22 -219 0 -218 0 -4 -38z"/>
</g>
</svg>
