<?xml version="1.0" standalone="no"?>
<!DOCTYPE svg PUBLIC "-//W3C//DTD SVG 20010904//EN"
 "http://www.w3.org/TR/2001/REC-SVG-20010904/DTD/svg10.dtd">
<svg version="1.0" xmlns="http://www.w3.org/2000/svg"
 width="947.000000pt" height="167.000000pt" viewBox="0 0 947.000000 167.000000"
 preserveAspectRatio="xMidYMid meet">
<metadata>
Created by potrace 1.16, written by Peter Selinger 2001-2019
</metadata>
<g transform="translate(0.000000,167.000000) scale(0.100000,-0.100000)"
fill="#000000" stroke="none">
<path d="M6159 1361 c-55 -26 -69 -67 -69 -199 0 -156 -10 -176 -101 -205 -11
-4 -15 -15 -13 -42 4 -42 7 -48 31 -51 67 -10 83 -48 83 -195 0 -126 8 -154
54 -190 20 -16 46 -22 104 -26 l77 -5 2 46 c2 44 1 46 -27 46 -16 0 -41 11
-56 24 -27 23 -28 26 -30 145 -3 135 -11 159 -65 187 l-31 16 28 17 c60 38 64
48 68 185 4 143 12 162 76 172 36 6 37 7 36 50 l0 45 -66 -2 c-37 -1 -82 -9
-101 -18z"/>
<path d="M8610 1335 c0 -43 1 -45 29 -45 33 0 73 -28 78 -56 3 -10 6 -69 7
-130 3 -122 14 -150 70 -178 l29 -14 -31 -16 c-55 -29 -64 -53 -67 -188 -3
-118 -4 -123 -30 -145 -14 -13 -39 -23 -54 -23 -26 0 -28 -3 -30 -46 l-1 -47
78 5 c83 6 106 15 135 55 25 32 25 37 26 175 1 110 2 118 27 147 14 17 33 31
42 31 30 0 43 16 46 54 2 28 -2 39 -13 43 -93 29 -101 46 -101 197 0 63 -5
127 -10 142 -23 59 -76 84 -182 84 l-48 0 0 -45z"/>
<path d="M1077 1349 c-97 -22 -183 -95 -218 -187 -29 -77 -31 -224 -3 -300 46
-125 148 -199 285 -207 194 -10 313 67 369 239 15 48 15 168 0 227 -26 98
-100 182 -191 215 -49 18 -184 25 -242 13z m207 -128 c55 -35 87 -97 93 -184
13 -179 -75 -287 -222 -272 -134 13 -205 149 -172 326 12 63 56 117 117 142
49 21 139 15 184 -12z"/>
<path d="M5438 1336 c-148 -49 -212 -152 -211 -337 0 -82 4 -104 27 -155 55
-121 149 -183 286 -189 227 -11 372 126 372 352 0 164 -76 286 -205 329 -78
26 -192 26 -269 0z m241 -119 c57 -38 86 -103 88 -199 2 -109 -11 -149 -70
-209 -74 -75 -224 -57 -288 33 -50 70 -58 223 -16 304 36 69 101 103 189 99
43 -2 69 -9 97 -28z"/>
<path d="M6530 1344 c-56 -19 -114 -79 -128 -134 -5 -22 -7 -40 -3 -41 3 0 34
-2 68 -4 60 -4 62 -3 68 23 10 43 49 65 102 59 53 -6 70 -20 78 -64 10 -60
-17 -102 -130 -198 -162 -138 -207 -209 -196 -312 1 -10 55 -13 236 -13 181 0
235 3 236 13 4 50 3 90 -4 94 -4 3 -75 5 -158 4 -102 0 -149 3 -149 10 0 14
78 92 145 145 137 109 178 196 147 310 -21 72 -92 114 -202 120 -39 2 -83 -3
-110 -12z"/>
<path d="M7114 1348 c-68 -14 -129 -90 -149 -183 -19 -91 -12 -294 12 -355 4
-8 7 -17 7 -20 5 -25 53 -84 87 -107 36 -24 51 -27 113 -27 98 0 157 36 199
119 47 94 52 321 11 439 -41 115 -143 164 -280 134z m134 -122 c30 -32 42
-108 38 -246 -4 -167 -28 -224 -96 -222 -83 2 -104 59 -103 269 0 109 15 183
42 206 33 30 88 27 119 -7z"/>
<path d="M7675 1350 c-57 -14 -82 -29 -113 -65 -28 -35 -58 -114 -43 -116 109
-8 131 -7 131 10 0 9 13 29 28 44 21 20 38 27 69 27 59 0 87 -26 87 -82 1 -55
-25 -95 -101 -158 -84 -69 -172 -161 -199 -205 -20 -35 -30 -86 -25 -132 1
-10 55 -13 236 -13 181 0 235 3 236 13 4 50 3 90 -4 94 -4 3 -75 5 -158 4 -87
0 -149 3 -149 9 0 16 61 80 122 127 127 97 176 167 179 254 4 116 -73 189
-204 194 -34 1 -75 -1 -92 -5z"/>
<path d="M140 1268 c-1 -104 -1 -590 0 -600 0 -5 27 -8 60 -8 50 0 60 3 61 18
4 77 0 483 -6 491 -3 6 -2 11 3 11 4 0 20 -21 34 -47 13 -27 43 -80 66 -120
52 -90 72 -125 134 -238 28 -49 55 -96 60 -102 11 -14 167 -19 169 -5 1 10 1
654 0 670 -1 8 -20 12 -61 12 l-60 0 -1 -32 c-3 -155 1 -462 6 -480 12 -37
-10 -10 -53 67 -21 39 -50 90 -64 115 -15 25 -62 108 -106 185 l-80 140 -81 3
-81 3 0 -83z"/>
<path d="M1580 1346 c0 -4 62 -172 115 -311 12 -33 49 -131 80 -217 l58 -158
72 0 71 0 57 158 c32 86 88 240 126 342 l68 185 -70 3 c-38 2 -71 1 -73 0 -5
-6 -160 -499 -169 -538 -8 -34 -8 -34 -32 45 -14 44 -54 173 -91 288 l-66 207
-73 0 c-40 0 -73 -2 -73 -4z"/>
<path d="M2310 1005 l0 -345 278 0 277 0 1 55 1 55 -209 0 -208 0 0 95 0 95
183 2 182 3 0 50 0 50 -183 3 -182 2 0 85 0 85 198 2 197 3 1 53 0 52 -268 0
-268 0 0 -345z"/>
<path d="M2980 1278 c-1 -111 -1 -538 -1 -580 l1 -38 60 0 c50 0 60 3 61 18 1
9 1 136 1 281 -1 145 1 262 3 260 2 -2 5 -17 8 -34 3 -16 24 -86 46 -155 21
-69 57 -180 78 -247 l38 -123 51 0 50 0 71 223 c40 122 77 245 84 272 6 28 14
53 18 57 3 4 5 -119 3 -272 l-3 -280 59 0 c49 0 60 3 64 18 2 9 3 163 3 342
l-1 325 -94 3 -95 2 -58 -187 c-32 -104 -60 -192 -61 -198 -1 -5 -11 -37 -21
-70 l-18 -60 -9 35 c-11 39 -44 148 -108 348 l-43 132 -93 0 -94 0 0 -72z"/>
<path d="M3810 1005 l0 -347 213 5 c116 2 225 7 241 11 44 11 107 57 129 94
28 49 26 132 -4 177 -22 31 -38 41 -119 72 l-25 10 31 7 c39 9 72 43 89 92 28
82 -7 159 -90 196 -45 20 -71 22 -257 26 l-208 4 0 -347z m397 212 c36 -36 35
-94 -3 -124 -26 -21 -39 -23 -141 -23 l-113 0 0 84 c0 59 4 86 13 89 6 2 59 3
116 1 95 -2 106 -5 128 -27z m11 -266 c39 -21 52 -42 52 -84 -1 -82 -35 -99
-197 -102 l-123 -2 0 102 0 102 123 -2 c68 -2 133 -8 145 -14z"/>
<path d="M4530 1006 l0 -346 70 0 70 0 0 130 0 130 89 0 c73 0 90 -3 95 -17 4
-9 38 -67 77 -130 l70 -113 79 0 79 0 -90 140 c-86 133 -96 160 -63 160 29 0
94 71 108 119 30 104 -7 195 -99 241 -48 24 -60 25 -267 28 l-218 4 0 -346z
m400 219 c36 -18 52 -47 52 -90 0 -82 -38 -102 -194 -104 l-118 -1 0 105 0
105 115 0 c84 0 124 -4 145 -15z"/>
<path d="M8104 1318 c-1 -18 -5 -87 -9 -153 -4 -66 -8 -138 -9 -160 l-1 -40
61 2 c42 1 72 8 95 22 40 24 96 27 125 6 33 -22 55 -79 50 -124 -9 -74 -45
-111 -108 -111 -51 0 -84 17 -98 51 -10 22 -17 27 -38 24 -15 -1 -46 -3 -69
-4 l-42 -1 9 -31 c27 -95 107 -143 235 -143 95 -1 159 26 202 83 89 116 49
315 -72 361 -69 26 -119 23 -208 -15 -12 -5 -16 -3 -12 6 3 8 6 46 8 84 l3 70
145 3 146 3 -1 49 0 50 -205 0 -206 0 -1 -32z"/>
</g>
</svg>
