<?xml version="1.0" standalone="no"?>
<!DOCTYPE svg PUBLIC "-//W3C//DTD SVG 20010904//EN"
 "http://www.w3.org/TR/2001/REC-SVG-20010904/DTD/svg10.dtd">
<svg version="1.0" xmlns="http://www.w3.org/2000/svg"
 width="947.000000pt" height="167.000000pt" viewBox="0 0 947.000000 167.000000"
 preserveAspectRatio="xMidYMid meet">
<metadata>
Created by potrace 1.16, written by Peter Selinger 2001-2019
</metadata>
<g transform="translate(0.000000,167.000000) scale(0.100000,-0.100000)"
fill="#000000" stroke="none">
<path d="M1396 1358 c-100 -13 -184 -78 -229 -177 -17 -37 -21 -67 -21 -156
-1 -99 2 -116 25 -165 56 -116 142 -172 270 -176 133 -4 233 54 285 164 29 62
35 86 38 157 7 151 -62 278 -179 331 -60 27 -110 33 -189 22z m141 -126 c90
-49 126 -220 70 -334 -36 -73 -81 -102 -158 -102 -50 1 -64 5 -96 30 -60 49
-78 95 -78 199 0 100 14 139 68 187 48 44 132 53 194 20z"/>
<path d="M5356 1358 c-107 -14 -197 -90 -236 -200 -29 -81 -24 -224 11 -298
55 -115 140 -171 267 -175 102 -4 166 20 231 85 60 60 92 137 95 230 7 185
-90 328 -239 355 -63 12 -67 12 -129 3z m172 -151 c68 -62 86 -212 39 -308
-37 -75 -81 -103 -158 -102 -51 0 -65 4 -96 30 -60 48 -78 94 -78 198 0 75 4
97 23 131 27 49 85 91 133 96 43 4 107 -16 137 -45z"/>
<path d="M501 1350 c-4 -3 -7 -150 -7 -327 l0 -323 66 0 66 0 -1 225 c0 124 3
221 7 217 9 -9 191 -318 227 -387 l27 -50 67 -3 c49 -2 67 0 68 10 7 102 2
631 -6 637 -5 4 -35 7 -65 7 l-55 -2 -5 -224 c-3 -127 -8 -216 -13 -205 -6 15
-232 409 -243 424 -5 6 -124 7 -133 1z"/>
<path d="M1826 1352 c-3 -2 45 -148 105 -325 60 -177 109 -323 109 -325 0 -2
25 -2 57 0 l56 3 18 50 c80 230 199 583 199 591 0 9 -116 12 -124 3 -5 -5 -74
-234 -82 -269 -3 -14 -16 -60 -30 -103 -13 -43 -24 -85 -24 -95 0 -21 -19 -3
-25 24 -12 49 -127 438 -132 443 -4 6 -122 9 -127 3z"/>
<path d="M2481 1350 c-4 -3 -7 -150 -7 -328 l0 -322 245 2 245 3 -3 50 c-1 28
-4 51 -5 52 -1 1 -80 3 -176 5 l-175 3 0 82 c-1 49 3 84 10 86 5 2 76 3 158 2
l147 0 1 30 c1 35 -1 68 -6 74 -2 1 -73 4 -157 5 l-153 1 -1 65 c0 36 1 70 3
75 2 7 63 11 171 11 l167 -1 0 49 c0 26 -4 51 -10 54 -12 8 -443 9 -454 2z"/>
<path d="M3087 1350 c-10 -4 -13 -78 -13 -328 l0 -323 65 3 66 3 0 248 c0 136
1 247 2 247 2 0 23 -73 28 -100 2 -8 21 -95 44 -192 23 -98 41 -184 41 -193 0
-12 14 -15 69 -15 l69 0 22 98 c102 459 98 451 97 157 l-1 -250 67 -3 67 -3
-2 328 -3 328 -97 0 -97 1 -23 -96 c-12 -52 -23 -100 -24 -107 -21 -117 -70
-311 -75 -301 -3 7 -26 99 -49 203 -50 222 -45 200 -55 248 -4 20 -12 40 -19
44 -13 8 -160 11 -179 3z"/>
<path d="M3861 1350 c-4 -3 -7 -151 -7 -329 l0 -323 191 4 c173 4 194 6 232
26 114 59 129 218 28 292 l-34 25 40 41 c40 40 45 58 41 137 -3 43 -78 113
-133 123 -49 8 -347 12 -358 4z m312 -109 c49 -3 74 -78 39 -121 -16 -19 -29
-22 -123 -26 l-105 -4 2 73 c1 39 2 75 3 78 1 5 115 5 184 0z m5 -260 c35 -2
72 -44 72 -83 0 -38 -6 -48 -40 -71 -19 -13 -47 -17 -125 -17 l-100 0 0 85
c-1 68 2 85 15 87 14 3 121 2 178 -1z"/>
<path d="M4492 1350 c-5 -3 -8 -150 -8 -327 l0 -323 62 0 c41 0 63 4 66 13 2
6 4 65 3 130 l0 117 96 0 c132 0 143 -9 145 -116 1 -44 4 -94 8 -111 l8 -33
74 0 c41 0 74 3 74 8 0 4 -6 16 -14 27 -8 12 -16 59 -20 110 -7 117 -11 129
-51 151 l-33 18 39 28 c45 33 61 64 65 128 4 68 -27 131 -79 161 -40 22 -52
23 -235 24 -106 0 -196 -2 -200 -5z m345 -114 c36 -12 50 -80 26 -128 -16 -32
-43 -38 -163 -35 l-85 2 0 80 c-1 44 3 83 8 86 11 8 186 4 214 -5z"/>
<path d="M5955 1350 c-71 -19 -86 -53 -86 -202 0 -124 -9 -161 -38 -164 -6 -1
-17 -2 -24 -3 -9 -1 -13 -15 -13 -41 0 -33 4 -40 21 -40 46 -1 50 -11 52 -154
3 -151 13 -185 63 -211 16 -8 48 -15 72 -15 l43 0 0 40 c0 38 -2 41 -37 51
l-38 10 0 132 c-1 142 -4 153 -54 179 l-29 15 30 6 c43 8 53 41 53 168 0 122
8 149 45 149 14 0 25 3 26 8 0 4 2 17 3 29 1 12 -1 28 -5 35 -8 13 -51 17 -84
8z"/>
<path d="M8183 1347 c-3 -5 -6 -22 -7 -39 -2 -22 3 -32 18 -38 12 -4 24 -6 27
-4 20 11 28 -34 30 -154 1 -129 2 -133 26 -152 14 -11 33 -20 42 -20 9 -1 2
-7 -16 -15 -17 -7 -36 -22 -42 -34 -6 -11 -11 -73 -11 -138 0 -126 -6 -143
-47 -143 -17 0 -23 -6 -24 -22 0 -13 -2 -33 -3 -46 -2 -20 2 -22 43 -22 54 0
107 28 121 64 5 14 10 77 11 141 1 64 3 125 6 135 5 17 56 44 65 35 2 -2 3 14
3 37 -1 36 -4 42 -25 45 -14 2 -29 8 -35 14 -5 5 -12 74 -15 152 -6 160 -17
190 -73 203 -46 11 -88 11 -94 1z"/>
<path d="M6250 1327 c-49 -24 -90 -80 -96 -134 -3 -21 -6 -46 -8 -55 -4 -19
24 -25 85 -20 33 3 35 6 36 39 2 79 91 120 150 69 24 -21 28 -31 27 -78 0 -71
-18 -95 -135 -184 -113 -86 -134 -109 -154 -177 -28 -94 -44 -87 200 -87 l215
0 0 55 0 55 -32 1 c-18 0 -80 0 -137 -1 l-104 -1 15 23 c8 13 54 53 101 89
128 98 152 133 156 221 4 98 -48 172 -140 198 -51 15 -131 9 -179 -13z"/>
<path d="M6775 1335 c-80 -28 -124 -115 -134 -265 -19 -267 70 -407 243 -386
129 15 189 120 187 333 -1 193 -47 295 -146 322 -53 14 -101 13 -150 -4z m134
-111 c31 -39 44 -125 39 -251 -4 -91 -9 -117 -27 -146 -24 -40 -56 -50 -99
-31 -41 17 -53 58 -58 191 -6 187 20 263 92 263 23 0 38 -8 53 -26z"/>
<path d="M7285 1342 c-81 -29 -122 -80 -134 -166 l-7 -54 58 -4 c34 -2 58 1
59 7 6 76 29 112 77 121 68 13 116 -37 109 -113 -6 -54 -33 -91 -110 -148
-147 -110 -179 -149 -192 -237 l-7 -48 216 0 216 0 0 55 0 55 -136 0 -136 0
14 23 c8 12 44 44 79 70 159 119 199 189 174 306 -6 33 -55 92 -94 115 -34 20
-149 31 -186 18z"/>
<path d="M7706 1305 c-3 -16 -8 -47 -12 -69 -3 -21 -7 -47 -9 -58 -8 -39 -27
-173 -26 -183 1 -5 22 -10 49 -10 34 -1 55 5 75 22 31 25 84 30 118 13 60 -33
66 -169 9 -211 -52 -38 -120 -27 -140 22 -7 16 -15 29 -19 30 -30 4 -94 3
-105 -1 -12 -4 -12 -11 1 -50 32 -99 142 -149 262 -120 99 24 162 108 162 219
1 160 -132 261 -265 202 -26 -11 -45 -17 -42 -13 2 4 7 32 11 62 4 30 9 58 11
61 2 4 57 7 121 7 65 0 124 0 131 1 8 1 12 19 12 54 l0 53 -169 0 -170 0 -5
-31z"/>
</g>
</svg>
